<svg xmlns="http://www.w3.org/2000/svg" width="1200" height="984" viewBox="0 0 1200 984">
  <rect width="1200" height="984" fill="#ffffff"/>
  <g font-family="Arial, Helvetica, sans-serif">
    <text x="64" y="104" font-size="46" font-weight="700" fill="#14121c">Token multiplier vs English</text>
    <text x="64" y="144" font-size="22" fill="#6b6977">Input tokens for the same 200 sentences ÷ English tokens · lower is cheaper</text>
    <line x1="64" y1="172" x2="1136" y2="172" stroke="#dcd9e3" stroke-width="1.5"/>
    <text x="270.8888888888889" y="222" font-size="18" text-anchor="middle" font-weight="700" fill="#26232f">GPT</text><text x="270.8888888888889" y="246" font-size="16" text-anchor="middle" fill="#6b6977">6.1</text><text x="372.66666666666663" y="222" font-size="18" text-anchor="middle" font-weight="700" fill="#26232f">Opus</text><text x="372.66666666666663" y="246" font-size="16" text-anchor="middle" fill="#6b6977">5.5</text><text x="474.44444444444446" y="222" font-size="18" text-anchor="middle" font-weight="700" fill="#26232f">Gemini</text><text x="474.44444444444446" y="246" font-size="16" text-anchor="middle" fill="#6b6977">3.8 Flash</text><text x="576.2222222222222" y="222" font-size="18" text-anchor="middle" font-weight="700" fill="#26232f">DeepSeek</text><text x="576.2222222222222" y="246" font-size="16" text-anchor="middle" fill="#6b6977">V4.1 Flash</text><text x="678" y="222" font-size="18" text-anchor="middle" font-weight="700" fill="#26232f">Kimi</text><text x="678" y="246" font-size="16" text-anchor="middle" fill="#6b6977">K3</text><text x="779.7777777777778" y="222" font-size="18" text-anchor="middle" font-weight="700" fill="#26232f">GLM</text><text x="779.7777777777778" y="246" font-size="16" text-anchor="middle" fill="#6b6977">5.3 Flash</text><text x="881.5555555555555" y="222" font-size="18" text-anchor="middle" font-weight="700" fill="#26232f">Muse Spark</text><text x="881.5555555555555" y="246" font-size="16" text-anchor="middle" fill="#6b6977">1.3</text><text x="983.3333333333333" y="222" font-size="18" text-anchor="middle" font-weight="700" fill="#26232f">Grok</text><text x="983.3333333333333" y="246" font-size="16" text-anchor="middle" fill="#6b6977">4.7</text><text x="1085.111111111111" y="234" font-size="18" text-anchor="middle" font-weight="700" fill="#6d28d9">Average</text><line x1="1034.2222222222222" y1="196" x2="1034.2222222222222" y2="868" stroke="#dcd9e3" stroke-width="1.5"/><line x1="64" y1="799" x2="1136" y2="799" stroke="#dcd9e3" stroke-width="1.5"/><text x="64" y="303" font-size="22" font-weight="700" fill="#26232f">Chinese</text><rect x="222" y="268" width="97.77777777777777" height="54" rx="3" fill="rgb(253,225,136)"/><text x="270.8888888888889" y="303" font-size="21" text-anchor="middle" font-weight="700" fill="#26232f">1.28×</text><rect x="323.77777777777777" y="268" width="97.77777777777777" height="54" rx="3" fill="rgb(242,238,189)"/><text x="372.66666666666663" y="303" font-size="21" text-anchor="middle" font-weight="700" fill="#26232f">1.13×</text><rect x="425.55555555555554" y="268" width="97.77777777777777" height="54" rx="3" fill="rgb(241,239,194)"/><text x="474.44444444444446" y="303" font-size="21" text-anchor="middle" font-weight="700" fill="#26232f">1.12×</text><rect x="527.3333333333333" y="268" width="97.77777777777777" height="54" rx="3" fill="rgb(200,241,234)"/><text x="576.2222222222222" y="303" font-size="21" text-anchor="middle" font-weight="700" fill="#26232f">0.98×</text><rect x="629.1111111111111" y="268" width="97.77777777777777" height="54" rx="3" fill="rgb(78,218,200)"/><text x="678" y="303" font-size="21" text-anchor="middle" font-weight="700" fill="#26232f">0.92×</text><rect x="730.8888888888889" y="268" width="97.77777777777777" height="54" rx="3" fill="rgb(224,245,240)"/><text x="779.7777777777778" y="303" font-size="21" text-anchor="middle" font-weight="700" fill="#26232f">1.00×</text><rect x="832.6666666666666" y="268" width="97.77777777777777" height="54" rx="3" fill="rgb(240,239,195)"/><text x="881.5555555555555" y="303" font-size="21" text-anchor="middle" font-weight="700" fill="#26232f">1.11×</text><rect x="934.4444444444443" y="268" width="97.77777777777777" height="54" rx="3" fill="rgb(241,238,193)"/><text x="983.3333333333333" y="303" font-size="21" text-anchor="middle" font-weight="700" fill="#26232f">1.12×</text><rect x="1040.2222222222222" y="268" width="93.77777777777777" height="54" rx="3" fill="rgb(237,241,208)"/><text x="1087.111111111111" y="303" font-size="21" text-anchor="middle" font-weight="700" fill="#26232f">1.08×</text><text x="64" y="361" font-size="22" font-weight="700" fill="#26232f">Spanish</text><rect x="222" y="326" width="97.77777777777777" height="54" rx="3" fill="rgb(253,218,132)"/><text x="270.8888888888889" y="361" font-size="21" text-anchor="middle" font-weight="700" fill="#26232f">1.32×</text><rect x="323.77777777777777" y="326" width="97.77777777777777" height="54" rx="3" fill="rgb(253,201,123)"/><text x="372.66666666666663" y="361" font-size="21" text-anchor="middle" font-weight="700" fill="#26232f">1.42×</text><rect x="425.55555555555554" y="326" width="97.77777777777777" height="54" rx="3" fill="rgb(253,224,135)"/><text x="474.44444444444446" y="361" font-size="21" text-anchor="middle" font-weight="700" fill="#26232f">1.28×</text><rect x="527.3333333333333" y="326" width="97.77777777777777" height="54" rx="3" fill="rgb(253,187,116)"/><text x="576.2222222222222" y="361" font-size="21" text-anchor="middle" font-weight="700" fill="#26232f">1.50×</text><rect x="629.1111111111111" y="326" width="97.77777777777777" height="54" rx="3" fill="rgb(251,146,62)"/><text x="678" y="361" font-size="21" text-anchor="middle" font-weight="700" fill="#26232f">1.67×</text><rect x="730.8888888888889" y="326" width="97.77777777777777" height="54" rx="3" fill="rgb(253,196,121)"/><text x="779.7777777777778" y="361" font-size="21" text-anchor="middle" font-weight="700" fill="#26232f">1.44×</text><rect x="832.6666666666666" y="326" width="97.77777777777777" height="54" rx="3" fill="rgb(253,222,134)"/><text x="881.5555555555555" y="361" font-size="21" text-anchor="middle" font-weight="700" fill="#26232f">1.30×</text><rect x="934.4444444444443" y="326" width="97.77777777777777" height="54" rx="3" fill="rgb(253,215,130)"/><text x="983.3333333333333" y="361" font-size="21" text-anchor="middle" font-weight="700" fill="#26232f">1.34×</text><rect x="1040.2222222222222" y="326" width="93.77777777777777" height="54" rx="3" fill="rgb(253,202,124)"/><text x="1087.111111111111" y="361" font-size="21" text-anchor="middle" font-weight="700" fill="#26232f">1.41×</text><text x="64" y="419" font-size="22" font-weight="700" fill="#26232f">Japanese</text><rect x="222" y="384" width="97.77777777777777" height="54" rx="3" fill="rgb(251,143,59)"/><text x="270.8888888888889" y="419" font-size="21" text-anchor="middle" font-weight="700" fill="#26232f">1.68×</text><rect x="323.77777777777777" y="384" width="97.77777777777777" height="54" rx="3" fill="rgb(252,231,142)"/><text x="372.66666666666663" y="419" font-size="21" text-anchor="middle" font-weight="700" fill="#26232f">1.24×</text><rect x="425.55555555555554" y="384" width="97.77777777777777" height="54" rx="3" fill="rgb(252,231,144)"/><text x="474.44444444444446" y="419" font-size="21" text-anchor="middle" font-weight="700" fill="#26232f">1.24×</text><rect x="527.3333333333333" y="384" width="97.77777777777777" height="54" rx="3" fill="rgb(253,194,120)"/><text x="576.2222222222222" y="419" font-size="21" text-anchor="middle" font-weight="700" fill="#26232f">1.45×</text><rect x="629.1111111111111" y="384" width="97.77777777777777" height="54" rx="3" fill="rgb(251,150,68)"/><text x="678" y="419" font-size="21" text-anchor="middle" font-weight="700" fill="#26232f">1.65×</text><rect x="730.8888888888889" y="384" width="97.77777777777777" height="54" rx="3" fill="rgb(253,179,107)"/><text x="779.7777777777778" y="419" font-size="21" text-anchor="middle" font-weight="700" fill="#26232f">1.53×</text><rect x="832.6666666666666" y="384" width="97.77777777777777" height="54" rx="3" fill="rgb(253,217,132)"/><text x="881.5555555555555" y="419" font-size="21" text-anchor="middle" font-weight="700" fill="#26232f">1.32×</text><rect x="934.4444444444443" y="384" width="97.77777777777777" height="54" rx="3" fill="rgb(250,232,149)"/><text x="983.3333333333333" y="419" font-size="21" text-anchor="middle" font-weight="700" fill="#26232f">1.22×</text><rect x="1040.2222222222222" y="384" width="93.77777777777777" height="54" rx="3" fill="rgb(253,201,123)"/><text x="1087.111111111111" y="419" font-size="21" text-anchor="middle" font-weight="700" fill="#26232f">1.42×</text><text x="64" y="477" font-size="22" font-weight="700" fill="#26232f">German</text><rect x="222" y="442" width="97.77777777777777" height="54" rx="3" fill="rgb(253,217,131)"/><text x="270.8888888888889" y="477" font-size="21" text-anchor="middle" font-weight="700" fill="#26232f">1.32×</text><rect x="323.77777777777777" y="442" width="97.77777777777777" height="54" rx="3" fill="rgb(251,146,63)"/><text x="372.66666666666663" y="477" font-size="21" text-anchor="middle" font-weight="700" fill="#26232f">1.67×</text><rect x="425.55555555555554" y="442" width="97.77777777777777" height="54" rx="3" fill="rgb(253,217,131)"/><text x="474.44444444444446" y="477" font-size="21" text-anchor="middle" font-weight="700" fill="#26232f">1.33×</text><rect x="527.3333333333333" y="442" width="97.77777777777777" height="54" rx="3" fill="rgb(253,178,106)"/><text x="576.2222222222222" y="477" font-size="21" text-anchor="middle" font-weight="700" fill="#26232f">1.53×</text><rect x="629.1111111111111" y="442" width="97.77777777777777" height="54" rx="3" fill="rgb(250,131,43)"/><text x="678" y="477" font-size="21" text-anchor="middle" font-weight="700" fill="#26232f">1.73×</text><rect x="730.8888888888889" y="442" width="97.77777777777777" height="54" rx="3" fill="rgb(253,191,119)"/><text x="779.7777777777778" y="477" font-size="21" text-anchor="middle" font-weight="700" fill="#26232f">1.47×</text><rect x="832.6666666666666" y="442" width="97.77777777777777" height="54" rx="3" fill="rgb(253,220,133)"/><text x="881.5555555555555" y="477" font-size="21" text-anchor="middle" font-weight="700" fill="#26232f">1.31×</text><rect x="934.4444444444443" y="442" width="97.77777777777777" height="54" rx="3" fill="rgb(253,217,131)"/><text x="983.3333333333333" y="477" font-size="21" text-anchor="middle" font-weight="700" fill="#26232f">1.33×</text><rect x="1040.2222222222222" y="442" width="93.77777777777777" height="54" rx="3" fill="rgb(253,193,119)"/><text x="1087.111111111111" y="477" font-size="21" text-anchor="middle" font-weight="700" fill="#26232f">1.46×</text><text x="64" y="535" font-size="22" font-weight="700" fill="#26232f">French</text><rect x="222" y="500" width="97.77777777777777" height="54" rx="3" fill="rgb(253,208,127)"/><text x="270.8888888888889" y="535" font-size="21" text-anchor="middle" font-weight="700" fill="#26232f">1.38×</text><rect x="323.77777777777777" y="500" width="97.77777777777777" height="54" rx="3" fill="rgb(253,198,122)"/><text x="372.66666666666663" y="535" font-size="21" text-anchor="middle" font-weight="700" fill="#26232f">1.43×</text><rect x="425.55555555555554" y="500" width="97.77777777777777" height="54" rx="3" fill="rgb(253,205,125)"/><text x="474.44444444444446" y="535" font-size="21" text-anchor="middle" font-weight="700" fill="#26232f">1.39×</text><rect x="527.3333333333333" y="500" width="97.77777777777777" height="54" rx="3" fill="rgb(252,174,100)"/><text x="576.2222222222222" y="535" font-size="21" text-anchor="middle" font-weight="700" fill="#26232f">1.55×</text><rect x="629.1111111111111" y="500" width="97.77777777777777" height="54" rx="3" fill="rgb(250,132,45)"/><text x="678" y="535" font-size="21" text-anchor="middle" font-weight="700" fill="#26232f">1.73×</text><rect x="730.8888888888889" y="500" width="97.77777777777777" height="54" rx="3" fill="rgb(253,182,111)"/><text x="779.7777777777778" y="535" font-size="21" text-anchor="middle" font-weight="700" fill="#26232f">1.52×</text><rect x="832.6666666666666" y="500" width="97.77777777777777" height="54" rx="3" fill="rgb(253,209,127)"/><text x="881.5555555555555" y="535" font-size="21" text-anchor="middle" font-weight="700" fill="#26232f">1.37×</text><rect x="934.4444444444443" y="500" width="97.77777777777777" height="54" rx="3" fill="rgb(253,201,123)"/><text x="983.3333333333333" y="535" font-size="21" text-anchor="middle" font-weight="700" fill="#26232f">1.42×</text><rect x="1040.2222222222222" y="500" width="93.77777777777777" height="54" rx="3" fill="rgb(253,191,118)"/><text x="1087.111111111111" y="535" font-size="21" text-anchor="middle" font-weight="700" fill="#26232f">1.47×</text><text x="64" y="593" font-size="22" font-weight="700" fill="#26232f">Russian</text><rect x="222" y="558" width="97.77777777777777" height="54" rx="3" fill="rgb(253,192,119)"/><text x="270.8888888888889" y="593" font-size="21" text-anchor="middle" font-weight="700" fill="#26232f">1.47×</text><rect x="323.77777777777777" y="558" width="97.77777777777777" height="54" rx="3" fill="rgb(253,218,132)"/><text x="372.66666666666663" y="593" font-size="21" text-anchor="middle" font-weight="700" fill="#26232f">1.32×</text><rect x="425.55555555555554" y="558" width="97.77777777777777" height="54" rx="3" fill="rgb(253,207,126)"/><text x="474.44444444444446" y="593" font-size="21" text-anchor="middle" font-weight="700" fill="#26232f">1.38×</text><rect x="527.3333333333333" y="558" width="97.77777777777777" height="54" rx="3" fill="rgb(251,150,68)"/><text x="576.2222222222222" y="593" font-size="21" text-anchor="middle" font-weight="700" fill="#26232f">1.65×</text><rect x="629.1111111111111" y="558" width="97.77777777777777" height="54" rx="3" fill="rgb(223,46,36)"/><text x="678" y="593" font-size="21" text-anchor="middle" font-weight="700" fill="#ffffff">2.07×</text><rect x="730.8888888888889" y="558" width="97.77777777777777" height="54" rx="3" fill="rgb(253,191,118)"/><text x="779.7777777777778" y="593" font-size="21" text-anchor="middle" font-weight="700" fill="#26232f">1.47×</text><rect x="832.6666666666666" y="558" width="97.77777777777777" height="54" rx="3" fill="rgb(253,229,138)"/><text x="881.5555555555555" y="593" font-size="21" text-anchor="middle" font-weight="700" fill="#26232f">1.26×</text><rect x="934.4444444444443" y="558" width="97.77777777777777" height="54" rx="3" fill="rgb(253,201,123)"/><text x="983.3333333333333" y="593" font-size="21" text-anchor="middle" font-weight="700" fill="#26232f">1.42×</text><rect x="1040.2222222222222" y="558" width="93.77777777777777" height="54" rx="3" fill="rgb(253,185,115)"/><text x="1087.111111111111" y="593" font-size="21" text-anchor="middle" font-weight="700" fill="#26232f">1.50×</text><text x="64" y="651" font-size="22" font-weight="700" fill="#26232f">Korean</text><rect x="222" y="616" width="97.77777777777777" height="54" rx="3" fill="rgb(253,189,117)"/><text x="270.8888888888889" y="651" font-size="21" text-anchor="middle" font-weight="700" fill="#26232f">1.48×</text><rect x="323.77777777777777" y="616" width="97.77777777777777" height="54" rx="3" fill="rgb(252,174,100)"/><text x="372.66666666666663" y="651" font-size="21" text-anchor="middle" font-weight="700" fill="#26232f">1.55×</text><rect x="425.55555555555554" y="616" width="97.77777777777777" height="54" rx="3" fill="rgb(253,208,127)"/><text x="474.44444444444446" y="651" font-size="21" text-anchor="middle" font-weight="700" fill="#26232f">1.37×</text><rect x="527.3333333333333" y="616" width="97.77777777777777" height="54" rx="3" fill="rgb(251,147,65)"/><text x="576.2222222222222" y="651" font-size="21" text-anchor="middle" font-weight="700" fill="#26232f">1.66×</text><rect x="629.1111111111111" y="616" width="97.77777777777777" height="54" rx="3" fill="rgb(230,66,32)"/><text x="678" y="651" font-size="21" text-anchor="middle" font-weight="700" fill="#ffffff">1.99×</text><rect x="730.8888888888889" y="616" width="97.77777777777777" height="54" rx="3" fill="rgb(236,82,29)"/><text x="779.7777777777778" y="651" font-size="21" text-anchor="middle" font-weight="700" fill="#26232f">1.93×</text><rect x="832.6666666666666" y="616" width="97.77777777777777" height="54" rx="3" fill="rgb(253,227,137)"/><text x="881.5555555555555" y="651" font-size="21" text-anchor="middle" font-weight="700" fill="#26232f">1.27×</text><rect x="934.4444444444443" y="616" width="97.77777777777777" height="54" rx="3" fill="rgb(251,148,66)"/><text x="983.3333333333333" y="651" font-size="21" text-anchor="middle" font-weight="700" fill="#26232f">1.66×</text><rect x="1040.2222222222222" y="616" width="93.77777777777777" height="54" rx="3" fill="rgb(251,159,80)"/><text x="1087.111111111111" y="651" font-size="21" text-anchor="middle" font-weight="700" fill="#26232f">1.61×</text><text x="64" y="709" font-size="22" font-weight="700" fill="#26232f">Arabic</text><rect x="222" y="674" width="97.77777777777777" height="54" rx="3" fill="rgb(253,205,125)"/><text x="270.8888888888889" y="709" font-size="21" text-anchor="middle" font-weight="700" fill="#26232f">1.39×</text><rect x="323.77777777777777" y="674" width="97.77777777777777" height="54" rx="3" fill="rgb(250,126,37)"/><text x="372.66666666666663" y="709" font-size="21" text-anchor="middle" font-weight="700" fill="#26232f">1.75×</text><rect x="425.55555555555554" y="674" width="97.77777777777777" height="54" rx="3" fill="rgb(253,193,120)"/><text x="474.44444444444446" y="709" font-size="21" text-anchor="middle" font-weight="700" fill="#26232f">1.46×</text><rect x="527.3333333333333" y="674" width="97.77777777777777" height="54" rx="3" fill="rgb(251,152,71)"/><text x="576.2222222222222" y="709" font-size="21" text-anchor="middle" font-weight="700" fill="#26232f">1.64×</text><rect x="629.1111111111111" y="674" width="97.77777777777777" height="54" rx="3" fill="rgb(224,49,36)"/><text x="678" y="709" font-size="21" text-anchor="middle" font-weight="700" fill="#ffffff">2.06×</text><rect x="730.8888888888889" y="674" width="97.77777777777777" height="54" rx="3" fill="rgb(249,122,31)"/><text x="779.7777777777778" y="709" font-size="21" text-anchor="middle" font-weight="700" fill="#26232f">1.77×</text><rect x="832.6666666666666" y="674" width="97.77777777777777" height="54" rx="3" fill="rgb(252,163,86)"/><text x="881.5555555555555" y="709" font-size="21" text-anchor="middle" font-weight="700" fill="#26232f">1.60×</text><rect x="934.4444444444443" y="674" width="97.77777777777777" height="54" rx="3" fill="rgb(253,211,128)"/><text x="983.3333333333333" y="709" font-size="21" text-anchor="middle" font-weight="700" fill="#26232f">1.36×</text><rect x="1040.2222222222222" y="674" width="93.77777777777777" height="54" rx="3" fill="rgb(251,155,76)"/><text x="1087.111111111111" y="709" font-size="21" text-anchor="middle" font-weight="700" fill="#26232f">1.63×</text><text x="64" y="767" font-size="22" font-weight="700" fill="#26232f">Hindi</text><rect x="222" y="732" width="97.77777777777777" height="54" rx="3" fill="rgb(252,166,90)"/><text x="270.8888888888889" y="767" font-size="21" text-anchor="middle" font-weight="700" fill="#26232f">1.58×</text><rect x="323.77777777777777" y="732" width="97.77777777777777" height="54" rx="3" fill="rgb(221,40,38)"/><text x="372.66666666666663" y="767" font-size="21" text-anchor="middle" font-weight="700" fill="#ffffff">2.09×</text><rect x="425.55555555555554" y="732" width="97.77777777777777" height="54" rx="3" fill="rgb(253,221,133)"/><text x="474.44444444444446" y="767" font-size="21" text-anchor="middle" font-weight="700" fill="#26232f">1.30×</text><rect x="527.3333333333333" y="732" width="97.77777777777777" height="54" rx="3" fill="rgb(168,30,30)"/><text x="576.2222222222222" y="767" font-size="21" text-anchor="middle" font-weight="700" fill="#ffffff">2.79×</text><rect x="629.1111111111111" y="732" width="97.77777777777777" height="54" rx="3" fill="rgb(172,30,30)"/><text x="678" y="767" font-size="21" text-anchor="middle" font-weight="700" fill="#ffffff">2.75×</text><rect x="730.8888888888889" y="732" width="97.77777777777777" height="54" rx="3" fill="rgb(91,15,15)"/><text x="779.7777777777778" y="767" font-size="21" text-anchor="middle" font-weight="700" fill="#ffffff">4.29×</text><rect x="832.6666666666666" y="732" width="97.77777777777777" height="54" rx="3" fill="rgb(251,146,63)"/><text x="881.5555555555555" y="767" font-size="21" text-anchor="middle" font-weight="700" fill="#26232f">1.67×</text><rect x="934.4444444444443" y="732" width="97.77777777777777" height="54" rx="3" fill="rgb(251,150,69)"/><text x="983.3333333333333" y="767" font-size="21" text-anchor="middle" font-weight="700" fill="#26232f">1.65×</text><rect x="1040.2222222222222" y="732" width="93.77777777777777" height="54" rx="3" fill="rgb(208,36,36)"/><text x="1087.111111111111" y="767" font-size="21" text-anchor="middle" font-weight="700" fill="#ffffff">2.27×</text><text x="64" y="847" font-size="22" font-weight="700" fill="#6d28d9">Average</text><rect x="222" y="812" width="97.77777777777777" height="54" rx="3" fill="rgb(253,198,122)"/><text x="270.8888888888889" y="847" font-size="21" text-anchor="middle" font-weight="700" fill="#26232f">1.43×</text><rect x="323.77777777777777" y="812" width="97.77777777777777" height="54" rx="3" fill="rgb(253,183,113)"/><text x="372.66666666666663" y="847" font-size="21" text-anchor="middle" font-weight="700" fill="#26232f">1.51×</text><rect x="425.55555555555554" y="812" width="97.77777777777777" height="54" rx="3" fill="rgb(253,218,132)"/><text x="474.44444444444446" y="847" font-size="21" text-anchor="middle" font-weight="700" fill="#26232f">1.32×</text><rect x="527.3333333333333" y="812" width="97.77777777777777" height="54" rx="3" fill="rgb(251,153,72)"/><text x="576.2222222222222" y="847" font-size="21" text-anchor="middle" font-weight="700" fill="#26232f">1.64×</text><rect x="629.1111111111111" y="812" width="97.77777777777777" height="54" rx="3" fill="rgb(245,105,24)"/><text x="678" y="847" font-size="21" text-anchor="middle" font-weight="700" fill="#26232f">1.84×</text><rect x="730.8888888888889" y="812" width="97.77777777777777" height="54" rx="3" fill="rgb(247,109,23)"/><text x="779.7777777777778" y="847" font-size="21" text-anchor="middle" font-weight="700" fill="#26232f">1.82×</text><rect x="832.6666666666666" y="812" width="97.77777777777777" height="54" rx="3" fill="rgb(253,211,129)"/><text x="881.5555555555555" y="847" font-size="21" text-anchor="middle" font-weight="700" fill="#26232f">1.36×</text><rect x="934.4444444444443" y="812" width="97.77777777777777" height="54" rx="3" fill="rgb(253,205,126)"/><text x="983.3333333333333" y="847" font-size="21" text-anchor="middle" font-weight="700" fill="#26232f">1.39×</text><rect x="1040.2222222222222" y="812" width="93.77777777777777" height="54" rx="3" fill="rgb(252,177,104)"/><text x="1087.111111111111" y="847" font-size="21" text-anchor="middle" font-weight="700" fill="#26232f">1.54×</text>
    <line x1="64" y1="898" x2="1136" y2="898" stroke="#dcd9e3" stroke-width="1.5"/>
    <text x="64" y="934" font-size="18" fill="#6b6977">FLORES-200 devtest, n=200 · one run per model · measured Oct 6, 2026 (UTC)</text>
    <text x="1136" y="934" font-size="20" text-anchor="end" font-weight="700" fill="#6d28d9">aiscroll.io</text>
  </g>
</svg>